<svg xmlns="http://www.w3.org/2000/svg" xmlns:xlink="http://www.w3.org/1999/xlink" version="1.1" id="Layer_1" x="0px" y="0px" width="150px" height="140.625px" viewBox="0 0 100 93.75" enable-background="new 0 0 100 93.75" xml:space="preserve">

<g>
	<path fill="#ffffff" d="M20.833,54.167c-3.446,0-6.25,2.804-6.25,6.25s2.804,6.25,6.25,6.25c3.447,0,6.25-2.804,6.25-6.25   S24.28,54.167,20.833,54.167z"/>
	<path fill="#ffffff" d="M45.671,70.028c0-0.005-0.003-0.005-0.004-0.011l-4.022-10.059c-0.249-11.273-9.479-20.374-20.812-20.374   C9.347,39.585,0,48.932,0,60.42c0,5.812,2.398,11.068,6.25,14.852V93.75h25v-8.333c5.743,0,8.333-2.591,8.333-8.333v-4.167h4.167   c1.151,0,2.083-0.932,2.083-2.083C45.833,70.578,45.671,70.028,45.671,70.028z M33.333,62.5h-2.295   c-0.269,1.327-0.8,2.561-1.524,3.652l1.988,1.988l-2.945,2.945l-1.988-1.988c-1.093,0.725-2.325,1.254-3.651,1.527v2.292H18.75   v-2.292c-1.326-0.273-2.56-0.803-3.651-1.527l-1.988,1.988l-2.946-2.945l1.988-1.988c-0.724-1.092-1.256-2.325-1.524-3.652H8.333   v-4.166h2.295c0.269-1.326,0.801-2.56,1.524-3.651l-1.85-1.851l2.946-2.945l1.85,1.85c1.092-0.725,2.325-1.254,3.651-1.527v-2.292   h4.167v2.292c1.326,0.273,2.559,0.803,3.651,1.527l1.85-1.85l2.946,2.945l-1.851,1.851c0.725,1.092,1.256,2.325,1.524,3.651h2.295   V62.5z"/>
</g>
</svg>
