<svg xmlns="http://www.w3.org/2000/svg" xmlns:xlink="http://www.w3.org/1999/xlink" version="1.1" id="Layer_1" x="0px" y="0px" width="100px" height="93.75px" viewBox="0 0 100 93.75" enable-background="new 0 0 100 93.75" xml:space="preserve">
<path fill="#ffffff" d="M98.962,0.281c-0.643-0.37-1.436-0.377-2.079-0.007L82.3,8.608c-0.648,0.37-1.05,1.062-1.05,1.809  c0,0.746,0.401,1.438,1.05,1.808l3.642,2.082l-7.853,11.216l-9.111-6.073c-0.947-0.633-2.118-0.853-3.225-0.598  c-1.112,0.25-2.073,0.944-2.659,1.921l-9.312,15.521L38.749,16.25c-0.851-1.135-2.223-1.739-3.631-1.656  c-1.414,0.104-2.68,0.918-3.359,2.161L21.558,35.455c2.995,0.088,5.871,0.699,8.526,1.773l5.889-10.794L50.834,46.25  c0.832,1.109,2.114,1.733,3.548,1.66c1.384-0.071,2.644-0.828,3.357-2.016L67.99,28.806l8.865,5.911  c1.888,1.259,4.427,0.777,5.726-1.078l10.626-15.182l3.676,2.101c0.32,0.183,0.679,0.275,1.034,0.275  c0.361,0,0.722-0.094,1.045-0.281C99.605,20.179,100,19.493,100,18.75V2.084C100,1.34,99.605,0.656,98.962,0.281z"/>
<g>
	<path fill="#ffffff" d="M20.833,54.167c-3.446,0-6.25,2.804-6.25,6.25s2.804,6.25,6.25,6.25c3.447,0,6.25-2.804,6.25-6.25   S24.28,54.167,20.833,54.167z"/>
	<path fill="#ffffff" d="M45.671,70.028c0-0.005-0.003-0.005-0.004-0.011l-4.022-10.059c-0.249-11.273-9.479-20.374-20.812-20.374   C9.347,39.585,0,48.932,0,60.42c0,5.812,2.398,11.068,6.25,14.852V93.75h25v-8.333c5.743,0,8.333-2.591,8.333-8.333v-4.167h4.167   c1.151,0,2.083-0.932,2.083-2.083C45.833,70.578,45.671,70.028,45.671,70.028z M33.333,62.5h-2.295   c-0.269,1.327-0.8,2.561-1.524,3.652l1.988,1.988l-2.945,2.945l-1.988-1.988c-1.093,0.725-2.325,1.254-3.651,1.527v2.292H18.75   v-2.292c-1.326-0.273-2.56-0.803-3.651-1.527l-1.988,1.988l-2.946-2.945l1.988-1.988c-0.724-1.092-1.256-2.325-1.524-3.652H8.333   v-4.166h2.295c0.269-1.326,0.801-2.56,1.524-3.651l-1.85-1.851l2.946-2.945l1.85,1.85c1.092-0.725,2.325-1.254,3.651-1.527v-2.292   h4.167v2.292c1.326,0.273,2.559,0.803,3.651,1.527l1.85-1.85l2.946,2.945l-1.851,1.851c0.725,1.092,1.256,2.325,1.524,3.651h2.295   V62.5z"/>
</g>
</svg>
